{"title":"Royal Kill 2009 DVDRip XviD - SDTeam","uid":5804086,"size":377763330,"categoryP":"video","categoryS":"movies","magnet":"?xt=urn:btih:b08fc642e16b04cd7bcca31c00cd635d60c7cd83&amp;dn=Royal+Kill+2009+DVDRip+XviD+-+SDTeam&amp;tr=udp%3A%2F%2Ftracker.openbittorrent.com%3A80&amp;tr=udp%3A%2F%2Fopen.demonii.com%3A1337&amp;tr=udp%3A%2F%2Ftracker.coppersurfer.tk%3A6969&amp;tr=udp%3A%2F%2Fexodus.desync.com%3A6969","seeders":0,"leechers":0,"uploader":"bg2k9","files":30,"time":1283377831,"description":"GREETZ: UnDeaD - BadGirl2k9 - virusofsaten - foxyb - WICCYWOLF - lizzymwah1\n\nVISIT http://www.seedboxworld.biz/ for all ur seedbox needs!\n\nRELEASE NAME: Royal Kill 2009 DVDRip XviD - SDTeam\nRELEASED BY: UnDeaD &amp; BadGirl2k9\nSIZE: 360 MB\n\nLANGUAGE: English\nIMDb: http://www.imdb.com/title/tt0421237/\n\nPLOT: When a female assassin is sent to the US to \nkill the last living heir to the modern day Himalayan \nKingdom, royal solider is also sent to protect her. When \nhe is face to face with the assassin his duty to the Kingdom \nbecomes compromised. As they battle, secrets are uncovered and \nthe line between good and evil is erased. Only one mission \ncan be completed and only one person can survive.\n\nSCREENS: &lt;a href=&quot;\nhttp://i658.photobucket.com/albums/uu309/BadGirl2k9/screens/vlcsnap-2010-09-01-20h17m37s104.png&quot; rel=&quot;nofollow&quot; target=&quot;_NEW&quot;&gt;\nhttp://i658.photobucket.com/albums/uu309/BadGirl2k9/screens/vlcsnap-2010-09-01-20h17m37s104.png&lt;/a&gt; &lt;a href=&quot;\nhttp://i658.photobucket.com/albums/uu309/BadGirl2k9/screens/vlcsnap-2010-09-01-20h17m50s249.png&quot; rel=&quot;nofollow&quot; target=&quot;_NEW&quot;&gt;\nhttp://i658.photobucket.com/albums/uu309/BadGirl2k9/screens/vlcsnap-2010-09-01-20h17m50s249.png&lt;/a&gt; &lt;a href=&quot;\nhttp://i658.photobucket.com/albums/uu309/BadGirl2k9/screens/vlcsnap-2010-09-01-20h18m10s187.png&quot; rel=&quot;nofollow&quot; target=&quot;_NEW&quot;&gt;\nhttp://i658.photobucket.com/albums/uu309/BadGirl2k9/screens/vlcsnap-2010-09-01-20h18m10s187.png&lt;/a&gt;\n\nGeneral\nFormat                           : AVI\nFormat/Info                      : Audio Video Interleave\nFile size                        : 360 MiB\nDuration                         : 1h 28mn\nOverall bit rate                 : 572 Kbps\nWriting application              : MEncoder SVN-r22963\nWriting library                  : MPlayer\n\nVideo\nID                               : 0\nFormat                           : MPEG-4 Visual\nFormat profile                   : Simple@L3\nFormat settings, BVOP            : No\nFormat settings, QPel            : No\nFormat settings, GMC             : No warppoints\nFormat settings, Matrix          : Default (H.263)\nCodec ID                         : XVID\nCodec ID/Hint                    : XviD\nDuration                         : 1h 28mn\nBit rate                         : 496 Kbps\nWidth                            : 512 pixels\nHeight                           : 288 pixels\nDisplay aspect ratio             : 16:9\nFrame rate                       : 20.000 fps\nResolution                       : 8 bits\nColorimetry                      : 4:2:0\nScan type                        : Progressive\nBits/(Pixel*Frame)               : 0.168\nStream size                      : 313 MiB (87%)\nWriting library                  : XviD 1.1.2 (UTC 2006-11-01)\n\nAudio\nID                               : 1\nFormat                           : MPEG Audio\nFormat version                   : Version 1\nFormat profile                   : Layer 3\nCodec ID                         : 55\nCodec ID/Hint                    : MP3\nDuration                         : 1h 28mn\nBit rate mode                    : Constant\nBit rate                         : 64.0 Kbps\nChannel(s)                       : 2 channels\nSampling rate                    : 44.1 KHz\nStream size                      : 40.3 MiB (11%)\nAlignment                        : Aligned on interleaves\nInterleave, duration             : 26 ms (0.52 video frame)\nInterleave, preload duration     : 522 ms\n\nGROUP NOTE: Big thanks to seedboxworld.biz for the seedbox!\n\n","torrent":{"xt":"urn:btih:b08fc642e16b04cd7bcca31c00cd635d60c7cd83","amp;dn":"Royal+Kill+2009+DVDRip+XviD+-+SDTeam","amp;tr":["udp%3A%2F%2Ftracker.openbittorrent.com%3A80","udp%3A%2F%2Fopen.demonii.com%3A1337","udp%3A%2F%2Ftracker.coppersurfer.tk%3A6969","udp%3A%2F%2Fexodus.desync.com%3A6969"],"infoHash":"b08fc642e16b04cd7bcca31c00cd635d60c7cd83","infoHashBuffer":{"type":"Buffer","data":[176,143,198,66,225,107,4,205,123,204,163,28,0,205,99,93,96,199,205,131]},"announce":[],"urlList":[]}}